{
  "accessors": [
    {
      "bufferView": 2,
      "componentType": 5126,
      "count": 11095,
      "max": [
        1.5762596130371094,
        2.482748031616211,
        5.263157844543457
      ],
      "min": [
        -1.5719454288482666,
        -2.482748031616211,
        8.642673492431641e-07
      ],
      "type": "VEC3"
    },
    {
      "bufferView": 2,
      "byteOffset": 133140,
      "componentType": 5126,
      "count": 11095,
      "max": [
        1.0,
        1.0,
        1.0
      ],
      "min": [
        -1.0,
        -1.0,
        -1.0
      ],
      "type": "VEC3"
    },
    {
      "bufferView": 1,
      "componentType": 5126,
      "count": 11095,
      "max": [
        0.9966590404510498,
        0.9966589212417603
      ],
      "min": [
        0.0033409828320145607,
        0.003341095056384802
      ],
      "type": "VEC2"
    },
    {
      "bufferView": 1,
      "byteOffset": 88760,
      "componentType": 5126,
      "count": 11095,
      "max": [
        0.9966590404510498,
        0.9966589212417603
      ],
      "min": [
        0.0033409828320145607,
        0.003341095056384802
      ],
      "type": "VEC2"
    },
    {
      "bufferView": 0,
      "componentType": 5125,
      "count": 27966,
      "type": "SCALAR"
    }
  ],
  "asset": {
    "extras": {
      "author": "Pr2Hack (https://sketchfab.com/Pr2Hack)",
      "license": "CC-BY-4.0 (http://creativecommons.org/licenses/by/4.0/)",
      "source": "https://sketchfab.com/3d-models/shopping-cart-fc4cb15fefb44f23bb6b0cd2e8aa1609",
      "title": "Shopping_Cart"
    },
    "generator": "Sketchfab-12.68.0",
    "version": "2.0"
  },
  "bufferViews": [
    {
      "buffer": 0,
      "byteLength": 111864,
      "name": "floatBufferViews",
      "target": 34963
    },
    {
      "buffer": 0,
      "byteLength": 177520,
      "byteOffset": 111864,
      "byteStride": 8,
      "name": "floatBufferViews",
      "target": 34962
    },
    {
      "buffer": 0,
      "byteLength": 266280,
      "byteOffset": 289384,
      "byteStride": 12,
      "name": "floatBufferViews",
      "target": 34962
    }
  ],
  "buffers": [
    {
      "byteLength": 555664,
      "uri": "scene.bin"
    }
  ],
  "images": [
    {
      "uri": "textures/Shopping_Cart_M_baseColor.png"
    }
  ],
  "materials": [
    {
      "doubleSided": true,
      "name": "Shopping_Cart_M",
      "pbrMetallicRoughness": {
        "baseColorTexture": {
          "index": 0
        },
        "metallicFactor": 0.0,
        "roughnessFactor": 0.8239417257
      }
    }
  ],
  "meshes": [
    {
      "name": "Shopping_Cart_Shopping_Cart_M_0",
      "primitives": [
        {
          "attributes": {
            "NORMAL": 1,
            "POSITION": 0,
            "TEXCOORD_0": 2,
            "TEXCOORD_1": 3
          },
          "indices": 4,
          "material": 0,
          "mode": 4
        }
      ]
    }
  ],
  "nodes": [
    {
      "children": [
        1
      ],
      "matrix": [
        1.0,
        0.0,
        0.0,
        0.0,
        0.0,
        2.220446049250313e-16,
        -1.0,
        0.0,
        0.0,
        1.0,
        2.220446049250313e-16,
        0.0,
        0.0,
        0.0,
        0.0,
        1.0
      ],
      "name": "Sketchfab_model"
    },
    {
      "children": [
        2
      ],
      "matrix": [
        1.0,
        0.0,
        0.0,
        0.0,
        0.0,
        0.0,
        1.0,
        0.0,
        0.0,
        -1.0,
        0.0,
        0.0,
        0.0,
        0.0,
        0.0,
        1.0
      ],
      "name": "7443249e74d149ffb91560f52fdf4dd8.fbx"
    },
    {
      "children": [
        3
      ],
      "name": "RootNode"
    },
    {
      "children": [
        4
      ],
      "matrix": [
        100.0,
        0.0,
        0.0,
        0.0,
        0.0,
        -1.629206793918314e-05,
        -99.99999999999868,
        0.0,
        0.0,
        99.99999999999868,
        -1.629206793918314e-05,
        0.0,
        0.0,
        0.0,
        0.0,
        1.0
      ],
      "name": "Shopping_Cart"
    },
    {
      "mesh": 0,
      "name": "Shopping_Cart_Shopping_Cart_M_0"
    }
  ],
  "samplers": [
    {
      "magFilter": 9729,
      "minFilter": 9987,
      "wrapS": 10497,
      "wrapT": 10497
    }
  ],
  "scene": 0,
  "scenes": [
    {
      "name": "Sketchfab_Scene",
      "nodes": [
        0
      ]
    }
  ],
  "textures": [
    {
      "sampler": 0,
      "source": 0
    }
  ]
}
