{
  "asset": {
    "extras": {
      "author": "Alihan (https://sketchfab.com/Dare0)",
      "license": "CC-BY-4.0 (http://creativecommons.org/licenses/by/4.0/)",
      "source": "https://sketchfab.com/3d-models/dollars-32c45aa26c494fd4a5e5999be0db076f",
      "title": "Dollars"
    },
    "generator": "gltfeditor.com",
    "version": "2.0"
  },
  "buffers": [
    {
      "uri": "data:application/octet-stream;base64,",
      "byteLength": 151928
    }
  ],
  "bufferViews": [
    {
      "buffer": 0,
      "byteOffset": 59672,
      "byteLength": 92256,
      "target": 34962,
      "byteStride": 12
    },
    {
      "buffer": 0,
      "byteOffset": 28920,
      "byteLength": 30752,
      "target": 34962,
      "byteStride": 8
    },
    {
      "buffer": 0,
      "byteOffset": 0,
      "byteLength": 28920,
      "target": 34963
    }
  ],
  "accessors": [
    {
      "bufferView": 0,
      "byteOffset": 47520,
      "componentType": 5126,
      "normalized": false,
      "count": 56,
      "max": [
        1,
        1,
        1
      ],
      "min": [
        -1,
        -1,
        -1
      ],
      "type": "VEC3"
    },
    {
      "bufferView": 0,
      "byteOffset": 46848,
      "componentType": 5126,
      "normalized": false,
      "count": 56,
      "max": [
        0.31627947092056274,
        0.03170765936374664,
        0.15271514654159546
      ],
      "min": [
        -0.31658440828323364,
        -0.06466241180896759,
        -0.15133747458457947
      ],
      "type": "VEC3"
    },
    {
      "bufferView": 1,
      "byteOffset": 15616,
      "componentType": 5126,
      "normalized": false,
      "count": 56,
      "max": [
        0.9662163257598877,
        0.911864697933197
      ],
      "min": [
        0.6312007904052734,
        0.10935056209564209
      ],
      "type": "VEC2"
    },
    {
      "bufferView": 2,
      "byteOffset": 14904,
      "componentType": 5125,
      "normalized": false,
      "count": 108,
      "max": [
        55
      ],
      "min": [
        0
      ],
      "type": "SCALAR"
    },
    {
      "bufferView": 0,
      "byteOffset": 56352,
      "componentType": 5126,
      "normalized": false,
      "count": 680,
      "max": [
        1,
        1,
        0.9998773336410522
      ],
      "min": [
        -1,
        -1,
        -0.999877393245697
      ],
      "type": "VEC3"
    },
    {
      "bufferView": 0,
      "byteOffset": 48192,
      "componentType": 5126,
      "normalized": false,
      "count": 680,
      "max": [
        0.06835254281759262,
        0.037129782140254974,
        0.16272741556167603
      ],
      "min": [
        -0.06864079087972641,
        -0.07127828896045685,
        -0.15958714485168457
      ],
      "type": "VEC3"
    },
    {
      "bufferView": 1,
      "byteOffset": 16064,
      "componentType": 5126,
      "normalized": false,
      "count": 680,
      "max": [
        0.5199108719825745,
        0.800636351108551
      ],
      "min": [
        0.06491005420684814,
        0.2753230035305023
      ],
      "type": "VEC2"
    },
    {
      "bufferView": 2,
      "byteOffset": 15336,
      "componentType": 5125,
      "normalized": false,
      "count": 1068,
      "max": [
        679
      ],
      "min": [
        0
      ],
      "type": "SCALAR"
    },
    {
      "bufferView": 0,
      "byteOffset": 66888,
      "componentType": 5126,
      "normalized": false,
      "count": 198,
      "max": [
        0.7462007999420166,
        0.6657224893569946,
        0.7462007999420166
      ],
      "min": [
        -0.7462007999420166,
        -0.6657224893569946,
        -0.7462007999420166
      ],
      "type": "VEC3"
    },
    {
      "bufferView": 0,
      "byteOffset": 64512,
      "componentType": 5126,
      "normalized": false,
      "count": 198,
      "max": [
        0.21038886904716492,
        0.03277965635061264,
        0.0864095389842987
      ],
      "min": [
        -0.20751400291919708,
        0.02462971955537796,
        -0.09266594052314758
      ],
      "type": "VEC3"
    },
    {
      "bufferView": 1,
      "byteOffset": 21504,
      "componentType": 5126,
      "normalized": false,
      "count": 198,
      "max": [
        0.9747762680053711,
        0.42112234234809875
      ],
      "min": [
        0.5720986127853394,
        0.02247142791748047
      ],
      "type": "VEC2"
    },
    {
      "bufferView": 2,
      "byteOffset": 19608,
      "componentType": 5125,
      "normalized": false,
      "count": 540,
      "max": [
        197
      ],
      "min": [
        0
      ],
      "type": "SCALAR"
    }
  ],
  "scene": 0,
  "scenes": [
    {
      "nodes": [
        6
      ],
      "name": "Sketchfab_Scene"
    }
  ],
  "nodes": [
    {
      "name": "Dollar Green_Material.003_0",
      "mesh": 0
    },
    {
      "name": "Dollar Green_Material.002_0",
      "mesh": 1
    },
    {
      "name": "Dollar Green_Material.001_0",
      "mesh": 2
    },
    {
      "name": "Dollar Green",
      "children": [
        0,
        1,
        2
      ],
      "matrix": [
        1,
        0,
        0,
        0,
        0,
        1,
        0,
        0,
        0,
        0,
        1,
        0,
        0.00015248116687871516,
        0,
        0,
        1
      ]
    },
    {
      "name": "RootNode",
      "children": [
        3
      ]
    },
    {
      "name": "dd0a86ff38f94a8ab0b94f0f80c24b04.fbx",
      "children": [
        4
      ],
      "matrix": [
        1,
        0,
        0,
        0,
        0,
        3.422854177870249e-8,
        0.9999999403953552,
        0,
        0,
        -0.9999999403953552,
        3.422854177870249e-8,
        0,
        0,
        0,
        0,
        1
      ]
    },
    {
      "name": "Sketchfab_model",
      "children": [
        5
      ],
      "matrix": [
        1,
        0,
        0,
        0,
        0,
        3.422854177870249e-8,
        -0.9999999403953552,
        0,
        0,
        0.9999999403953552,
        3.422854177870249e-8,
        0,
        0,
        0,
        0,
        1
      ]
    }
  ],
  "meshes": [
    {
      "primitives": [
        {
          "material": 0,
          "mode": 4,
          "attributes": {
            "NORMAL": 0,
            "POSITION": 1,
            "TEXCOORD_0": 2
          },
          "indices": 3
        }
      ]
    },
    {
      "primitives": [
        {
          "material": 1,
          "mode": 4,
          "attributes": {
            "NORMAL": 4,
            "POSITION": 5,
            "TEXCOORD_0": 6
          },
          "indices": 7
        }
      ]
    },
    {
      "primitives": [
        {
          "material": 2,
          "mode": 4,
          "attributes": {
            "NORMAL": 8,
            "POSITION": 9,
            "TEXCOORD_0": 10
          },
          "indices": 11
        }
      ]
    }
  ],
  "materials": [
    {
      "pbrMetallicRoughness": {
        "baseColorFactor": [
          1,
          1,
          1,
          1
        ],
        "metallicFactor": 0,
        "roughnessFactor": 0.8211145618000169,
        "baseColorTexture": {
          "index": 0,
          "texCoord": 0
        }
      },
      "emissiveFactor": [
        0,
        0,
        0
      ],
      "alphaMode": "OPAQUE",
      "doubleSided": true
    },
    {
      "pbrMetallicRoughness": {
        "baseColorFactor": [
          0.8,
          0.8,
          0.8,
          1
        ],
        "metallicFactor": 0,
        "roughnessFactor": 0.8211145618000169
      },
      "emissiveFactor": [
        0,
        0,
        0
      ],
      "alphaMode": "OPAQUE",
      "doubleSided": true
    },
    {
      "pbrMetallicRoughness": {
        "baseColorFactor": [
          1,
          1,
          1,
          1
        ],
        "metallicFactor": 1,
        "roughnessFactor": 1,
        "baseColorTexture": {
          "index": 0,
          "texCoord": 0
        },
        "metallicRoughnessTexture": {
          "index": 1,
          "texCoord": 0
        }
      },
      "emissiveFactor": [
        0,
        0,
        0
      ],
      "alphaMode": "OPAQUE",
      "doubleSided": true
    }
  ],
  "textures": [
    {
      "sampler": 0,
      "source": 0
    },
    {
      "sampler": 1,
      "source": 1
    }
  ],
  "samplers": [
    {
      "magFilter": 9729,
      "minFilter": 9987,
      "wrapS": 10497,
      "wrapT": 10497
    },
    {
      "magFilter": 9729,
      "minFilter": 9987,
      "wrapS": 10497,
      "wrapT": 10497
    }
  ],
  "images": [
    {
      "uri": "data:image/png;base64,",
      "mimeType": "image/png"
    },
    {
      "uri": "data:image/png;base64,",
      "mimeType": "image/png"
    }
  ]
}